<svg width="15" height="15" viewBox="0 0 15 15" fill="none" xmlns="http://www.w3.org/2000/svg">
<path fill-rule="evenodd" clip-rule="evenodd" d="M7.06952 0.0655695L6.88937 0.131105L6.70668 0.292582L6.52399 0.454059L6.4742 0.60797L6.42437 0.761915V5.09702V9.43216L6.39354 9.45611L6.36275 9.48009L4.39708 7.95637L2.43144 6.43268L2.25299 6.38658L2.07453 6.34048L1.82916 6.34205L1.58378 6.34357L1.40533 6.41539L1.22688 6.48717L1.08416 6.60301L0.941392 6.71887L0.872241 6.84793L0.803046 6.97699L0.803492 7.16033L0.803938 7.34368L0.910207 7.51723L1.01652 7.69079L3.97699 9.98646L6.93742 12.2821L7.11588 12.3269L7.29433 12.3718H7.49509H7.69585L7.87431 12.3269L8.05276 12.2821L11.0253 9.97393L13.9978 7.66573L14.0925 7.51828L14.1871 7.37079L14.1862 7.1663L14.1852 6.96185L14.1037 6.82224L14.0222 6.68263L13.8847 6.57569L13.7473 6.46878L13.5768 6.40543L13.4064 6.34208L13.1387 6.34232L12.871 6.3426L12.6703 6.42254L12.4695 6.50248L10.5551 7.99174L8.64055 9.48103L8.60388 9.4525L8.56716 9.42393L8.55534 4.9967L8.54351 0.569509L8.40851 0.399597L8.27347 0.229685L8.05691 0.125516L7.84036 0.0213472L7.54501 0.0106911L7.24972 0L7.06952 0.0655695ZM0.869966 13.3636L0.691512 13.3877L0.557671 13.4434L0.42383 13.499L0.28111 13.6148L0.138347 13.7306L0.0691955 13.8596L0 13.9887V14.1871V14.3855L0.0931532 14.5352L0.186306 14.685L0.362709 14.8024L0.539111 14.9199L0.726846 14.9599L0.91458 15L7.61394 14.9901L14.3133 14.9802L14.5055 14.8751L14.6977 14.77L14.8307 14.6227L14.9638 14.4754L14.9819 14.2539L15 14.0325L14.9451 13.903L14.8902 13.7736L14.7313 13.6367L14.5724 13.4999L14.3909 13.4243L14.2094 13.3487L7.62893 13.3441L1.04842 13.3394L0.869966 13.3636Z" fill="#F3F9FC" fill-opacity="0.63"/>
</svg>
