<svg width="32" height="32" viewBox="0 0 32 32" fill="none" xmlns="http://www.w3.org/2000/svg">
<rect width="32" height="32" fill="#FCFF5C" fill-opacity="0.46"/>
<path d="M27.9579 13.3725C28.0186 13.2109 28.1577 13.0719 28.2555 12.9289C28.4074 12.7069 28.5366 12.4729 28.6439 12.2301C28.8387 11.7894 29.0835 11.3712 29.2864 10.9342C29.4264 10.6326 29.5988 10.3552 29.6729 10.0303C29.781 9.55679 29.9653 9.08518 30.045 8.60932C30.0882 8.35095 30.1691 8.10053 30.2119 7.84213C30.2639 7.52918 30.2673 7.21762 30.2936 6.90317C30.3193 6.59647 30.3099 6.28828 30.3099 5.98088C30.3099 5.67274 30.311 5.42471 30.172 5.14031C30.0249 4.83912 29.885 4.53667 29.7274 4.2397C29.6252 4.04714 29.6318 3.80707 29.584 3.59927C29.4743 3.12246 29.3884 2.67278 29.1503 2.23501C29.0237 2.00235 28.9715 1.73036 28.7528 1.56956C28.6472 1.49189 27.9236 0.947112 27.8926 1.00418" stroke="black" stroke-width="0.5" stroke-linecap="round"/>
<path d="M27.892 1.004C27.6625 1.08683 27.4151 1.12229 27.1769 1.17745C26.9204 1.23685 26.6781 1.34813 26.4328 1.43762C26.0645 1.57202 25.5962 1.65341 25.284 1.88292C24.5616 2.41403 23.8812 2.97862 23.2278 3.57907C22.6489 4.11112 21.9856 4.57052 21.4057 5.10343C21.1802 5.31064 20.8755 5.54793 20.7469 5.82058C20.6288 6.07115 20.4434 6.27323 20.2805 6.49771" stroke="black" stroke-width="0.5" stroke-linecap="round"/>
<path d="M20.2153 5.98748C19.5694 5.719 18.9225 5.54295 18.2407 5.37207C17.3101 5.13882 16.3532 5.12768 15.4005 5.04185C15.0259 5.0081 14.6174 5.0008 14.2444 5.04018C14.0718 5.0584 13.9105 5.11785 13.7399 5.14025C13.6401 5.15335 13.5377 5.13672 13.4386 5.15359C13.3005 5.1771 13.1755 5.24213 13.0357 5.267C12.9676 5.27911 12.8284 5.27023 12.7671 5.30369C12.4456 5.4794 12.1771 5.71692 11.8198 5.84072C11.7887 5.85148 11.6533 5.8674 11.7545 5.8674" stroke="black" stroke-width="0.5" stroke-linecap="round"/>
<path d="M11.4273 6.58795C11.2529 6.26103 10.9612 6.00372 10.7014 5.73404C10.4219 5.44398 10.2199 5.11096 9.98268 4.7934C9.87227 4.64559 9.7556 4.49188 9.62334 4.35977C9.45438 4.191 9.3644 3.96665 9.19322 3.80106C9.07505 3.68675 8.97678 3.55463 8.86111 3.43748C8.70206 3.27641 8.51178 3.15844 8.36929 2.98384C8.25632 2.84543 8.04245 2.73248 7.97183 2.57023C7.93396 2.48322 7.89755 2.51054 7.80487 2.44848C7.41245 2.18574 6.95502 2.00851 6.57441 1.73133C6.31379 1.54154 5.97753 1.45548 5.66699 1.35107C5.3256 1.2363 5.05012 1.22074 4.6906 1.18596C4.5868 1.17592 4.52934 1.24116 4.43652 1.1843" stroke="black" stroke-width="0.5" stroke-linecap="round"/>
<path d="M4.43722 1.1843C3.7814 1.33883 3.20067 1.9865 2.98172 2.55355C2.84144 2.91685 2.71595 3.26635 2.62783 3.64429C2.57235 3.88221 2.62026 4.13818 2.6006 4.37979C2.58276 4.59912 2.5752 4.81362 2.5752 5.03356C2.5752 5.56973 2.70525 6.09397 2.74579 6.62797C2.79079 7.22076 2.9672 7.80069 2.9672 8.39917C2.9672 8.89724 3.07482 9.41959 3.24124 9.89018C3.38775 10.3044 3.50045 10.7276 3.69314 11.1277C3.76751 11.2821 3.87878 11.3596 3.98714 11.4879C4.05904 11.5731 4.17589 11.6363 4.17589 11.7514" stroke="black" stroke-width="0.5" stroke-linecap="round"/>
<path d="M13.2632 30.2146C13.099 30.2146 12.4865 30.3215 12.3322 30.2033C11.776 29.7774 10.8633 29.8789 10.2945 29.4724C10.0131 29.2713 9.52141 29.2625 9.18781 29.1721C8.94469 29.1062 8.4032 29.0519 8.20132 28.9001C7.76214 28.5699 7.15515 28.3958 6.64761 28.1579C6.40999 28.0465 6.32311 27.9183 6.13587 27.7443C5.81528 27.4462 5.46566 27.1722 5.16172 26.8604C4.9387 26.6316 4.60837 26.4128 4.32938 26.2456C4.13459 26.1289 3.87872 26.0575 3.71591 25.8972C3.4193 25.6051 3.1564 25.288 2.87432 24.9849C2.6675 24.7627 2.58633 24.556 2.44273 24.2994C2.28517 24.0178 2.02927 23.7883 1.93099 23.4835C1.70807 22.7921 1.1892 22.1313 1.08632 21.4154C0.999255 20.8096 1 20.2061 1 19.5966C1 18.5196 1.2183 17.4443 1.44392 16.3954C1.53435 15.9749 1.6577 15.6982 1.82926 15.2962C2.16515 14.5091 2.46516 13.749 2.89898 13.0015C3.17096 12.5328 3.39007 11.9088 4.05193 12.0609" stroke="black" stroke-width="0.5" stroke-linecap="round"/>
<path d="M18.6926 18.6229C19.2839 19.0281 19.8623 19.4891 20.4902 19.8472C20.6113 19.9163 20.7393 19.9715 20.8793 19.9949C21.2407 20.0553 21.5918 20.1164 21.9578 20.1698C22.1827 20.2026 22.3645 20.405 22.5753 20.4419C22.8663 20.4928 23.1396 20.7225 23.4149 20.8267C23.8708 20.9992 24.3063 21.2203 24.7641 21.3844C25.1455 21.5212 25.5601 21.6841 25.9103 21.88C26.2317 22.0598 26.5098 22.2817 26.8217 22.4727C26.9672 22.5619 27.1891 22.7678 27.1812 22.8906C27.1808 22.8977 25.7549 22.9202 25.6205 22.9255C25.3207 22.9375 25.027 23.0463 24.7323 23.0927C24.6758 23.1016 24.5337 23.1075 24.487 23.1432C24.3933 23.215 24.1961 23.2709 24.1444 23.3725C24.0865 23.4866 23.9681 23.7363 23.9858 23.8584C24.0045 23.9868 23.9861 24.1489 24.0239 24.2704C24.0316 24.295 24.059 24.2856 24.0789 24.2937C24.1399 24.3186 24.1525 24.4544 24.1635 24.4958C24.2002 24.6347 24.2596 25.1993 24.4595 25.1993C24.6363 25.1993 24.752 25.4469 24.836 25.5588C24.9844 25.7569 25.1105 25.9201 25.3224 26.0272C25.4864 26.1101 25.656 26.2621 25.8489 26.2818C26.0517 26.3025 26.2671 26.2837 26.4707 26.2837C26.7239 26.2837 27.0233 26.22 27.029 25.9611C27.0379 25.5489 27.1723 25.1698 27.2277 24.7679C27.2757 24.42 27.3335 24.0963 27.3335 23.7457C27.3335 23.6187 27.4181 23.3178 27.2235 23.3103C27.0394 23.3033 26.7728 23.2302 26.5933 23.2773C26.493 23.3037 26.3916 23.4377 26.2867 23.4794C26.1298 23.5418 25.9363 23.5548 25.7707 23.596C25.3784 23.6938 24.9711 23.7679 24.5907 23.9011C24.493 23.9353 24.6508 24.4218 24.671 24.4939C24.7141 24.6474 24.7782 24.8948 24.9798 24.9195C25.2621 24.9541 25.5449 25.0146 25.8214 25.0769C25.9551 25.107 26.2621 25.2805 26.3438 25.1196C26.3942 25.0203 26.4744 24.7927 26.403 24.6824C26.1339 24.267 25.8626 23.845 25.5402 23.4619C25.4391 23.3418 25.3376 23.3888 25.1934 23.4153C24.9859 23.4534 24.4454 23.3199 24.5462 23.598C24.5889 23.7156 24.5928 23.8284 24.5928 23.9517C24.5928 24.1143 24.6655 24.2442 24.7535 24.387C24.9205 24.658 25.1852 24.9119 25.4429 25.1138C25.6417 25.2695 25.8388 25.1354 26.0329 25.0283C26.1755 24.9497 26.2078 24.8345 26.1894 24.6824C26.173 24.5469 25.5545 24.352 25.4492 24.3131C25.2905 24.2545 24.6804 24.0036 24.5039 24.1363C24.421 24.1986 24.5786 24.4763 24.5907 24.5522C24.6406 24.8659 24.847 24.9406 25.1236 25.1255C25.2111 25.184 25.3416 25.3469 25.4514 25.3373C25.5657 25.3273 25.766 25.2756 25.8489 25.1993C26.0192 25.0428 26.0436 24.6162 26.0604 24.4181C26.0886 24.0853 26.074 23.7425 26.0308 23.4114C26.0245 23.3631 26.0144 23.1511 25.9462 23.1082C25.8739 23.0628 25.6888 23.1207 25.6205 23.1354C25.4492 23.1725 25.3739 23.1633 25.3456 23.3337C25.3031 23.5898 25.2728 23.9464 25.5825 24.0955C25.8274 24.2134 26.0756 24.2255 26.348 24.2198C26.4204 24.2183 26.7202 24.1579 26.7202 24.0566C26.7202 23.9919 26.6124 23.8367 26.551 23.8059C26.3408 23.7005 26.2693 23.4851 26.0879 23.3434C25.9971 23.2725 26.0753 23.4902 26.0964 23.5202C26.2033 23.6732 26.2553 23.8758 26.3036 24.0488C26.3875 24.3495 26.4786 24.6838 26.4559 24.9972C26.4428 25.1766 26.3975 25.3628 26.422 25.5433C26.4398 25.6741 26.8482 25.7667 26.9909 25.759C27.044 25.7561 27.2009 25.6554 27.2489 25.6113C27.3274 25.5391 27.3376 25.4379 27.38 25.347C27.4297 25.2404 27.5238 25.1447 27.5238 25.0244C27.5238 24.6736 27.863 24.2128 27.545 23.9206C27.3796 23.7686 27.562 22.9988 27.1833 23.151C26.9493 23.2451 26.8564 23.4185 26.7117 23.6135C26.6584 23.6854 26.5936 23.829 26.6694 23.9186C26.7224 23.9811 27.0908 23.9593 27.1728 23.9322C27.3054 23.8883 27.3279 23.5442 27.287 23.4425C27.2687 23.3972 27.016 23.1029 26.9824 23.1005C26.7086 23.0803 26.6045 23.21 26.5426 23.4503C26.4728 23.7209 26.7064 23.6487 26.9105 23.6621C27.1109 23.6752 27.3151 23.72 27.5196 23.6932C27.7158 23.6674 27.543 23.2793 27.5069 23.2035C27.4437 23.0708 27.5269 22.911 27.3546 22.8206C27.3009 22.7924 27.1259 22.7157 27.067 22.7157C26.9343 22.7157 27.204 23.0521 27.2108 23.0771C27.2615 23.2635 27.3889 23.4197 27.4392 23.6096C27.4906 23.8039 27.4717 24.0063 27.5238 24.2004C27.6238 24.573 27.638 24.8643 27.638 25.2498C27.638 25.3306 27.5648 25.4572 27.4667 25.4772C27.325 25.5062 27.4298 25.6633 27.3271 25.7046C27.2807 25.7233 27.1255 25.7197 27.1072 25.7785C27.0918 25.828 27.1029 25.8403 27.067 25.8815C26.9659 25.9976 26.9161 25.8315 26.8767 25.759" stroke="black" stroke-width="0.3" stroke-linecap="round"/>
<path d="M26.1153 26.7384C25.9753 26.8778 25.7774 27.0664 25.6881 27.2359C25.6519 27.3046 25.526 27.578 25.4492 27.578C25.3305 27.578 25.2117 27.6868 25.1108 27.7315C24.8974 27.8259 24.7143 27.8523 24.4743 27.9006C24.1915 27.9574 23.9089 28.0127 23.6347 28.0988C23.5723 28.1184 23.5087 28.1488 23.4423 28.1299C23.2533 28.076 23.0361 28.0787 22.8565 28.0152C22.6778 27.9521 22.4096 27.9977 22.2242 27.9977C22.0255 27.9977 21.8243 27.9901 21.6257 27.9997C21.4871 28.0064 21.3566 28.0327 21.2176 28.0327C20.8932 28.0327 20.5733 28.0132 20.2532 27.9977C19.7803 27.9748 19.3023 28.0923 18.8321 28.0541C18.2786 28.0091 17.7326 27.8951 17.1784 27.8578C17.1348 27.8549 17.0815 27.8671 17.0388 27.8559C16.7015 27.7673 16.36 27.7211 15.9941 27.7179C15.8151 27.7163 15.8329 27.696 15.7234 27.6401C15.5304 27.5416 15.2781 27.5776 15.0615 27.543C14.7138 27.4874 14.3667 27.3876 14.0105 27.3331" stroke="black" stroke-width="0.3" stroke-linecap="round"/>
<path d="M19.6106 17.26C19.6106 17.0344 19.6106 16.8088 19.6106 16.5832C19.6106 16.4363 19.6323 16.2865 19.6594 16.1422C19.6734 16.0679 19.6813 15.9912 19.7032 15.9183C19.7123 15.8877 19.7369 15.8586 19.7429 15.8281C19.7516 15.784 19.8346 15.7307 19.8684 15.6986C19.9289 15.6413 19.9846 15.5878 20.0564 15.541C20.2181 15.4356 20.3992 15.4363 20.5771 15.372C20.6847 15.333 20.7863 15.3062 20.9025 15.3062C20.9931 15.3062 21.0838 15.3062 21.1744 15.3062C21.2813 15.3062 21.3859 15.3158 21.4907 15.3339C21.6027 15.3532 21.7032 15.401 21.8138 15.4262C21.9042 15.4468 21.9968 15.4542 22.0887 15.4659C22.1501 15.4737 22.2056 15.5025 22.2681 15.5035C22.4697 15.5067 22.6585 15.5064 22.8507 15.445C22.8682 15.4395 22.9238 15.4283 22.9223 15.4283C22.8922 15.4283 22.8609 15.451 22.8337 15.4622C22.7256 15.5068 22.5981 15.5739 22.5134 15.6496C22.4724 15.6863 22.4429 15.7436 22.4158 15.79C22.2852 16.0128 22.168 16.2891 21.941 16.4428C21.8736 16.4884 21.8265 16.5564 21.7673 16.6108C21.7005 16.6722 21.6162 16.7215 21.5356 16.7663C21.4242 16.8283 21.3179 16.8828 21.1943 16.9218C21.0619 16.9637 20.9309 16.9693 20.7951 16.997C20.5899 17.0387 20.3957 17.1117 20.1887 17.1452C20.1235 17.1557 20.0556 17.1569 19.9922 17.1754C19.9593 17.1851 19.9346 17.1926 19.9002 17.1947C19.8332 17.199 19.7702 17.2224 19.7026 17.2224" stroke="black" stroke-width="0.3" stroke-linecap="round"/>
<path d="M20.397 15.7946C20.4012 15.8415 20.4151 15.9406 20.4753 15.9553C20.5277 15.9682 20.5638 16.0061 20.6213 16.0101C20.6773 16.0141 20.7297 16.0092 20.7831 15.9939C20.814 15.9851 20.9136 15.8947 20.8711 15.8557C20.8442 15.8309 20.7758 15.8059 20.7649 15.7758" stroke="black" stroke-width="0.3" stroke-linecap="round"/>
<path d="M12.5812 17.4134C12.4184 17.3149 12.2506 17.1775 12.0699 17.1111C11.9763 17.0767 11.8801 17.0456 11.7885 17.0073C11.6695 16.9576 11.5097 16.9873 11.3822 16.9873C11.1785 16.9873 10.9747 16.9873 10.7709 16.9873C10.6815 16.9873 10.5862 16.9966 10.4974 16.9864C10.4516 16.9811 10.396 16.922 10.3577 16.9017C10.1262 16.7789 10.0076 16.5817 9.85636 16.379C9.82771 16.3407 9.78257 16.224 9.73746 16.2006C9.63485 16.1474 9.53942 16.0844 9.43922 16.0276C9.34599 15.9747 9.24147 15.9058 9.14098 15.8673C9.09984 15.8516 9.05663 15.8398 9.01514 15.8245C8.98903 15.8149 8.90562 15.8135 8.9329 15.8072C9.20916 15.7438 9.4725 15.6206 9.76223 15.6115C9.88748 15.6075 9.99428 15.5982 10.111 15.5523C10.2056 15.515 10.2842 15.4523 10.3785 15.4148C10.5596 15.3428 10.7797 15.3468 10.972 15.3155C11.1827 15.2812 11.4047 15.2991 11.6181 15.2991C11.7152 15.2991 11.8128 15.2921 11.9074 15.3155C11.9804 15.3336 12.0977 15.3367 12.161 15.3738C12.3076 15.4595 12.4444 15.604 12.5544 15.7271C12.6269 15.8083 12.7353 15.9307 12.7565 16.0349C12.781 16.1546 12.7595 16.2971 12.7595 16.4173C12.7595 16.6385 12.7464 16.8526 12.7248 17.0711C12.7179 17.1408 12.7238 17.2132 12.7238 17.2832C12.7238 17.3208 12.7447 17.3989 12.6882 17.3643" stroke="black" stroke-width="0.3" stroke-linecap="round"/>
<path d="M11.0295 15.6597C11.0442 15.8749 11.1053 16.2006 11.408 16.2006C11.5282 16.2006 11.5926 16.2216 11.6627 16.1286C11.7105 16.0651 11.7076 15.9707 11.7251 15.8964C11.734 15.8588 11.7951 15.7348 11.739 15.6998C11.7065 15.6795 11.6237 15.688 11.5874 15.6843C11.444 15.6696 11.2864 15.665 11.1425 15.677C11.0544 15.6844 11.1959 15.8451 11.2079 15.8655C11.241 15.9216 11.3637 16.013 11.4397 16.003C11.4896 15.9964 11.491 15.8851 11.4754 15.8564" stroke="black" stroke-width="0.3" stroke-linecap="round"/>
<path d="M13.3303 30.3233C13.6226 30.358 13.8593 30.5489 14.1552 30.5489C14.4329 30.5489 14.6271 30.6015 14.8846 30.6929C15.0908 30.7662 15.3635 30.7134 15.5799 30.7305C15.8143 30.7491 16.0401 30.7744 16.2752 30.7744C16.8648 30.7744 17.4495 30.7632 18.034 30.8182C18.4795 30.8602 18.9012 30.8289 19.3429 30.9185C19.7741 31.006 20.2232 30.9999 20.6619 30.9999C21.2712 30.9999 21.7795 30.985 22.373 30.8652C22.6691 30.8055 22.9755 30.8638 23.2694 30.7963C23.6764 30.7028 24.0787 30.5087 24.4794 30.386C25.2633 30.1459 25.8667 29.8498 26.5518 29.4181C27.134 29.0512 27.772 28.6727 28.2731 28.2122C28.7465 27.7771 29.1386 27.3306 29.5274 26.8277C29.828 26.4389 29.9438 25.9528 30.1273 25.5121C30.3042 25.0872 30.4903 24.6621 30.6181 24.2216C31.0154 22.8524 30.9998 21.391 30.9998 19.9868C30.9998 19.4149 30.9009 18.93 30.7544 18.3768C30.6396 17.943 30.5707 17.447 30.3318 17.0549C30.1239 16.7137 30.0938 16.27 29.8205 15.9617C29.5691 15.6782 29.2641 15.4408 29.0093 15.1599C28.8374 14.9703 28.8035 14.7491 28.6378 14.5647C28.4677 14.3755 27.7714 13.6481 27.7482 13.6908" stroke="black" stroke-width="0.5" stroke-linecap="round"/>
<path d="M25.6005 24.6288C25.6005 24.8646 25.5574 25.3045 25.9107 25.3587C26.0488 25.3798 26.1897 25.5296 26.3368 25.462C26.5108 25.3821 26.5305 25.3007 26.6129 25.1644C26.678 25.0567 26.8276 24.959 26.8276 24.8293C26.8276 24.5673 26.7097 24.4079 26.5822 24.2028C26.4772 24.034 26.0673 24.0037 25.8732 24.0086C25.528 24.0174 25.4044 24.3775 25.2086 24.5975C25.0497 24.7759 25.3836 25.2483 25.5392 25.3493C25.7026 25.4553 25.6629 25.6904 25.8187 25.7815C25.8873 25.8216 26.2611 25.8573 26.3231 25.8003C26.3885 25.7402 26.3681 25.637 26.4731 25.5998C26.5856 25.5601 26.7005 25.621 26.7935 25.5278C26.8924 25.4287 27.0116 25.3147 27.0116 25.1801C27.0116 24.8072 26.9186 24.2625 26.5685 24.0212C26.4282 23.9244 25.7668 23.998 25.6278 24.0337C25.2592 24.1283 25.3551 24.5824 25.3551 24.8544C25.3551 25.0841 25.4989 25.2244 25.6278 25.4056C25.7485 25.5753 25.9384 25.5879 26.0573 25.7283C26.1636 25.8539 26.359 25.9241 26.5208 25.9945C26.6744 26.0613 26.9353 26.1842 27.1003 26.2044C27.5603 26.2607 27.7776 25.8462 28.0205 25.5591C28.13 25.4298 28.1295 25.1758 28.0853 25.0298C28.02 24.8136 27.8504 24.6869 27.7956 24.491C27.7 24.1494 27.6336 23.8355 27.3934 23.5576C27.1254 23.2475 26.5355 22.7944 26.2277 23.3884C26.0994 23.636 26.1162 24.0406 26.0948 24.3062C26.0733 24.5721 26.3098 24.9616 26.0914 24.4597" stroke="black" stroke-width="0.5" stroke-linecap="round"/>
<path d="M20.3098 15.8579C20.3098 16.0882 20.6557 16.1962 20.8597 16.0712C20.9186 16.0351 20.9439 15.9587 21.0035 15.8996C21.0841 15.8199 21.218 15.6809 21.218 15.5658C21.218 15.4684 20.9967 15.4615 20.9228 15.4615" stroke="black" stroke-width="0.5" stroke-linecap="round"/>
<path d="M10.8679 15.6741C10.9315 15.739 10.9514 15.898 11.0512 15.9242C11.0908 15.9346 11.0665 15.9681 11.1387 15.9681C11.1943 15.9681 11.2499 15.9681 11.3055 15.9681C11.5289 15.9681 11.7523 15.9681 11.9756 15.9681" stroke="black" stroke-width="0.5" stroke-linecap="round"/>
</svg>
