<svg width="56" height="57" viewBox="0 0 56 57" fill="none" xmlns="http://www.w3.org/2000/svg">
<path d="M27.9999 56.1665C43.2184 56.1665 55.5554 43.7798 55.5554 28.4999C55.5554 13.2201 43.2184 0.833313 27.9999 0.833313C12.7815 0.833313 0.444443 13.2201 0.444443 28.4999C0.444443 43.7798 12.7815 56.1665 27.9999 56.1665Z" fill="url(#paint0_linear_28_32)"/>
<path d="M11.9126 28.26L30.4688 20.5838C32.3005 19.7842 38.5124 17.2254 38.5124 17.2254C38.5124 17.2254 41.3795 16.1059 41.1406 18.8246C41.0609 19.9441 40.4238 23.8622 39.7867 28.1001L37.7957 40.654C37.7957 40.654 37.6364 42.4932 36.2825 42.813C34.9286 43.1328 32.6987 41.6935 32.3005 41.3737C31.9819 41.1338 26.3275 37.5356 24.2568 35.7764C23.6994 35.2966 23.0622 34.3371 24.3365 33.2176C27.2035 30.5789 30.6281 27.3005 32.6987 25.2215C33.6544 24.262 34.6101 22.0231 30.6281 24.7417L19.3988 32.3381C19.3988 32.3381 18.1246 33.1377 15.7354 32.418C13.3461 31.6984 10.5587 30.7388 10.5587 30.7388C10.5587 30.7388 8.64738 29.5394 11.9126 28.26V28.26Z" fill="white"/>
<defs>
<linearGradient id="paint0_linear_28_32" x1="37.1872" y1="10.0576" x2="23.3155" y2="42.2928" gradientUnits="userSpaceOnUse">
<stop stop-color="#37AEE2"/>
<stop offset="1" stop-color="#1E96C8"/>
</linearGradient>
</defs>
</svg>
